<svg width="230" height="143" viewBox="0 0 230 143" xmlns="http://www.w3.org/2000/svg"><style>text {fill:#333;font-family:sans-serif;font-size:14} circle, path {stroke: #333}</style><g fill="none" fill-rule="evenodd"><g transform="translate(189 54)"><circle cx="19" cy="19" r="19"/><text><tspan x="15" y="24">6</tspan></text></g><g transform="translate(2 54)"><circle cx="19" cy="19" r="19"/><text><tspan x="15" y="24">1</tspan></text></g><g transform="translate(53 1)"><circle cx="19" cy="19" r="19"/><text><tspan x="15" y="24">2</tspan></text></g><g transform="translate(54 104)"><circle cx="19" cy="19" r="19"/><text><tspan x="15" y="24">3</tspan></text></g><g transform="translate(134 1)"><circle cx="19" cy="19" r="19"/><text><tspan x="15" y="24">4</tspan></text></g><g transform="translate(134 104)"><circle cx="19" cy="19" r="19"/><text><tspan x="15" y="24">5</tspan></text></g><path d="M33 57l24-24M51.485 42.758L57 33l-9.758 5.515"/><path d="M37 87l22 22M49.242 103.485L59 109l-5.515-9.758" stroke-dasharray="2 1"/><path d="M74 104V39M77 49.8L74 39l-3 10.8M88 32l53 74M132.272 98.967L141 106l-3.85-10.527"/><path d="M91 21h44.07M124.27 24l10.8-3-10.8-3" stroke-dasharray="2 1"/><path d="M154 39.5V103M151 92.2l3 10.8 3-10.8M168 110l26-24M188.1 95.53L194 86l-9.97 5.12"/><path d="M167.5 32.5L195 59M185.14 53.666L195 59l-5.695-9.654" stroke-dasharray="2 1"/></g></svg>
